<svg width="50" height="50" viewBox="0 0 50 50" fill="none" xmlns="http://www.w3.org/2000/svg">
<g clip-path="url(#clip0)">
<path d="M48.688 38.5727L38.5678 31.8237C37.2835 30.9742 35.562 31.2537 34.6125 32.4661L31.6646 36.2564C31.2858 36.7559 30.5971 36.9008 30.049 36.5964L29.4883 36.2872C27.6294 35.274 25.3164 34.0126 20.6563 29.3508C15.9961 24.689 14.7322 22.3743 13.7189 20.5188L13.4115 19.958C13.1028 19.4101 13.245 18.7185 13.7447 18.3366L17.5324 15.3896C18.7444 14.44 19.0243 12.719 18.1757 11.4343L11.4267 1.31412C10.557 0.00591344 8.81214 -0.386802 7.46576 0.422551L3.23386 2.96465C1.90418 3.74637 0.92864 5.0124 0.511807 6.49743C-1.01209 12.0499 0.134323 21.6327 14.2506 35.7506C25.4798 46.9789 33.8394 49.9985 39.5852 49.9985C40.9076 50.0042 42.2248 49.8321 43.5013 49.4869C44.9867 49.0706 46.2529 48.095 47.0341 46.7649L49.5787 42.5355C50.3893 41.1889 49.9968 39.4429 48.688 38.5727ZM48.143 41.6806L45.6042 45.9125C45.0433 46.8725 44.1326 47.5783 43.0629 47.8822C37.937 49.2895 28.9817 48.1239 15.4295 34.5717C1.87733 21.0195 0.711777 12.065 2.11909 6.93828C2.42334 5.86735 3.13007 4.95547 4.09126 4.39364L8.32315 1.85486C8.90734 1.50335 9.66465 1.67373 10.042 2.24142L13.7082 7.74558L16.7853 12.3607C17.1538 12.918 17.0327 13.6648 16.507 14.0772L12.7184 17.0242C11.5654 17.9058 11.2362 19.501 11.946 20.767L12.2469 21.3136C13.3118 23.2666 14.6357 25.6962 19.4692 30.5289C24.3026 35.3615 26.7315 36.6855 28.6836 37.7503L29.231 38.0519C30.4969 38.7617 32.0922 38.4325 32.9738 37.2796L35.9208 33.491C36.3333 32.9656 37.0798 32.8446 37.6373 33.2127L47.7566 39.9617C48.3246 40.3388 48.495 41.0965 48.143 41.6806Z" fill="#3C3C3C"/>
<path d="M28.3317 8.33774C36.151 8.34643 42.4875 14.6831 42.4963 22.5023C42.4963 22.9625 42.8693 23.3355 43.3295 23.3355C43.7897 23.3355 44.1627 22.9625 44.1627 22.5023C44.153 13.7631 37.0709 6.68096 28.3317 6.67139C27.8715 6.67139 27.4985 7.04438 27.4985 7.50456C27.4985 7.96475 27.8715 8.33774 28.3317 8.33774Z" fill="#3C3C3C"/>
<path d="M28.3317 13.337C33.3911 13.343 37.4911 17.4429 37.4971 22.5023C37.4971 22.9625 37.8701 23.3355 38.3302 23.3355C38.7904 23.3355 39.1634 22.9625 39.1634 22.5023C39.1565 16.523 34.311 11.6775 28.3317 11.6707C27.8715 11.6707 27.4985 12.0436 27.4985 12.5038C27.4985 12.964 27.8715 13.337 28.3317 13.337Z" fill="#3C3C3C"/>
<path d="M28.3317 18.3363C30.6314 18.339 32.495 20.2026 32.4978 22.5024C32.4978 22.9625 32.8709 23.3355 33.331 23.3355C33.7911 23.3355 34.1641 22.9625 34.1641 22.5024C34.1604 19.2827 31.5514 16.6735 28.3317 16.6699C27.8715 16.6699 27.4985 17.0429 27.4985 17.5031C27.4985 17.9633 27.8715 18.3363 28.3317 18.3363Z" fill="#3C3C3C"/>
</g>
<defs>
<clipPath id="clip0">
<rect width="50" height="50" fill="white"/>
</clipPath>
</defs>
</svg>
