<svg width="80" height="80" viewBox="0 0 80 80" fill="none" xmlns="http://www.w3.org/2000/svg">
<path d="M57.8109 33.4136C56.6351 33.6174 55.4661 33.7931 54.3196 33.9462L53.2976 23.2766C60.1526 18.8939 62.1863 11.2005 62.7305 5.93186C62.9001 4.23504 62.2156 2.56445 60.9043 1.47472C59.3198 0.147038 57.1861 -0.320947 55.1915 0.221476C50.2579 1.49913 45.1961 2.21483 40.1019 2.35578C35.0078 2.21483 29.9454 1.49913 25.0123 0.221476C23.0171 -0.320947 20.8822 0.149478 19.2995 1.48021C17.9883 2.56811 17.3025 4.23626 17.4697 5.93186C18.0133 11.1993 20.0457 18.8914 26.8983 23.2741L25.8842 33.9481C24.7378 33.7931 23.5687 33.6174 22.393 33.4148C20.3679 33.0487 18.3129 33.8779 17.1097 35.5473C15.9425 37.1385 15.7905 39.2582 16.718 41.0002C18.3953 43.8514 20.9078 46.1181 23.9153 47.4952L17.9761 75.9355C17.6106 77.6964 18.6918 79.4341 20.4325 79.8856C22.1733 80.3371 23.9623 79.3432 24.4992 77.6268L29.2626 62.6544H50.9424L55.7047 77.6213C56.2373 79.345 58.0312 80.345 59.7774 79.8905C61.523 79.4365 62.603 77.689 62.2278 75.9245L56.2941 47.4885C59.3015 46.112 61.8141 43.8447 63.4914 40.9935C64.4188 39.2515 64.2663 37.1324 63.0997 35.5406C61.8934 33.8718 59.836 33.0444 57.8109 33.4136ZM51.6795 34.2702C50.7631 34.3709 49.879 34.4594 49.0272 34.5369L48.1779 25.5878C49.0595 25.3297 49.9229 25.0143 50.7637 24.6445L51.6795 34.2702ZM40.1019 26.6659C41.9299 26.6727 43.7549 26.5165 45.5548 26.1998L46.3639 34.737C42.6652 34.9823 40.1483 34.9902 40.0995 34.9902C40.0501 34.9902 37.5362 34.9823 33.8345 34.737L34.6435 26.1998C36.4459 26.5171 38.2721 26.6733 40.1019 26.6659ZM20.122 5.65851C20.0506 4.83176 20.3953 4.02392 21.0415 3.50347C21.687 2.96105 22.5046 2.66695 23.3472 2.67427C23.6828 2.67672 24.0166 2.72126 24.3405 2.80729C29.4914 4.15084 34.7802 4.894 40.1019 5.02152C45.4236 4.894 50.7124 4.15084 55.8633 2.80729C57.014 2.48818 58.2478 2.75054 59.1691 3.51018C59.8128 4.03125 60.1551 4.83847 60.0819 5.66401C59.2185 14.0267 55.0487 24.0002 40.1019 24.0002C36.2037 24.1344 32.3408 23.2241 28.9136 21.3625C28.8947 21.3534 28.8801 21.3387 28.8618 21.3296C22.842 17.7987 20.7108 11.3591 20.122 5.65851ZM29.4457 24.639C30.2858 25.0088 31.1498 25.3242 32.0315 25.5823L31.1821 34.5302C30.3298 34.4557 29.4457 34.3666 28.5298 34.2635L29.4457 24.639ZM21.9561 76.8245C21.8633 77.118 21.59 77.3175 21.2813 77.3162C21.0708 77.3175 20.8712 77.2229 20.7388 77.0588C20.6009 76.8952 20.5448 76.678 20.5857 76.4681L26.3955 48.6191C27.7318 49.1603 29.0954 49.6313 30.4811 50.0304L21.9561 76.8245ZM47.1345 50.6887L48.3963 54.6571H31.8076L33.0693 50.6887C37.7065 51.6699 42.4974 51.6699 47.1345 50.6887ZM30.1052 59.9886L30.9527 57.3229H49.2456L50.0931 59.9886H30.1052ZM59.6157 76.4578C59.6596 76.6707 59.6041 76.8922 59.465 77.0588C59.3326 77.2229 59.1331 77.3175 58.9226 77.3162C58.612 77.3175 58.3374 77.1155 58.2465 76.819L49.7228 50.0279C51.1084 49.6289 52.4721 49.1579 53.8083 48.6161L59.6157 76.4578ZM61.1295 39.7445C59.3716 43.0661 55.0463 45.7758 48.6257 47.5819C43.0514 49.1505 37.1525 49.1505 31.5781 47.5819C25.1575 45.7758 20.8322 43.0661 19.0744 39.7445C18.6186 38.9031 18.6936 37.8732 19.2678 37.1068C19.8724 36.2624 20.9127 35.8462 21.9335 36.0403C27.9392 37.0428 34.0132 37.5827 40.1019 37.656C46.1894 37.5827 52.2616 37.0421 58.2667 36.0403C59.2868 35.8462 60.3271 36.2624 60.9324 37.1068C61.5072 37.8719 61.584 38.9019 61.1295 39.7445Z" fill="#3C3C3C"/>
</svg>
