<svg width="59" height="59" viewBox="0 0 59 59" fill="none" xmlns="http://www.w3.org/2000/svg">
<g clip-path="url(#clip0)">
<path d="M30.5 9.025V7.858C32.221 7.411 33.5 5.859 33.5 4C33.5 1.794 31.706 0 29.5 0C27.294 0 25.5 1.794 25.5 4C25.5 5.859 26.779 7.411 28.5 7.858V9.025C15.177 9.553 4.5 20.55 4.5 34C4.5 47.785 15.715 59 29.5 59C43.285 59 54.5 47.785 54.5 34C54.5 20.55 43.823 9.553 30.5 9.025ZM27.5 4C27.5 2.897 28.397 2 29.5 2C30.603 2 31.5 2.897 31.5 4C31.5 5.103 30.603 6 29.5 6C28.397 6 27.5 5.103 27.5 4ZM29.5 57C16.817 57 6.5 46.683 6.5 34C6.5 21.317 16.817 11 29.5 11C42.183 11 52.5 21.317 52.5 34C52.5 46.683 42.183 57 29.5 57Z" fill="#3C3C3C"/>
<path d="M41.7799 20.378L24.8099 28.863C24.7839 28.876 24.7689 28.903 24.7439 28.919C24.6759 28.96 24.6239 29.012 24.5669 29.068C24.5109 29.124 24.4589 29.177 24.4179 29.245C24.4029 29.27 24.3759 29.285 24.3619 29.311L15.8769 46.281C15.6849 46.666 15.7599 47.131 16.0649 47.435C16.2569 47.627 16.5129 47.728 16.7719 47.728C16.9239 47.728 17.0769 47.694 17.2189 47.623L34.1889 39.138C34.2149 39.125 34.2299 39.098 34.2549 39.082C34.3229 39.041 34.3749 38.989 34.4319 38.933C34.4879 38.877 34.5399 38.824 34.5809 38.756C34.5959 38.731 34.6229 38.716 34.6369 38.69L43.1219 21.72C43.3139 21.335 43.2389 20.87 42.9339 20.566C42.6289 20.262 42.1659 20.186 41.7799 20.378ZM19.0089 44.491L25.5319 31.446L32.0529 37.967L19.0089 44.491ZM33.4679 36.554L26.9469 30.033L39.9919 23.51L33.4679 36.554Z" fill="#3C3C3C"/>
</g>
<defs>
<clipPath id="clip0">
<rect width="59" height="59" fill="white"/>
</clipPath>
</defs>
</svg>
