<svg width="12" height="12" viewBox="0 0 12 12" fill="none" xmlns="http://www.w3.org/2000/svg">
<path d="M1.5 5.25H8.7L6.9675 3.5175C6.81975 3.36975 6.75 3.1935 6.75 3C6.75 2.631 7.05487 2.25 7.5 2.25C7.69913 2.25 7.87275 2.32237 8.0175 2.4675L11.0018 5.45175C11.1248 5.57475 11.25 5.72662 11.25 6C11.25 6.27338 11.1454 6.405 11.0078 6.54263L8.0175 9.5325C7.87275 9.67763 7.69913 9.75 7.5 9.75C7.0545 9.75 6.75 9.369 6.75 9C6.75 8.8065 6.81975 8.63025 6.9675 8.4825L8.7 6.75H1.5C1.086 6.75 0.75 6.414 0.75 6C0.75 5.586 1.086 5.25 1.5 5.25Z" fill="#3C3C3C"/>
</svg>
