<svg width="80" height="80" viewBox="0 0 80 80" fill="none" xmlns="http://www.w3.org/2000/svg">
<path d="M62.2375 43.3375V43.325L56.4 9.675C56.3186 8.73995 55.8896 7.8694 55.1976 7.23529C54.5057 6.60117 53.601 6.2496 52.6625 6.25H46.25V5C46.248 4.33757 45.984 3.70283 45.5155 3.23442C45.0471 2.76601 44.4124 2.50198 43.75 2.5H36.25C35.5875 2.50198 34.9528 2.76601 34.4844 3.23442C34.016 3.70283 33.7519 4.33757 33.75 5V6.25H27.3375C26.3989 6.2496 25.4943 6.60117 24.8023 7.23529C24.1103 7.8694 23.6813 8.73995 23.6 9.675L17.7625 43.3375C17.7042 43.6962 17.7245 44.0634 17.822 44.4135C17.9196 44.7636 18.092 45.0884 18.3273 45.3654C18.5627 45.6423 18.8554 45.8649 19.1852 46.0176C19.515 46.1703 19.874 46.2496 20.2375 46.25H36.25V62.5H31.25C30.2563 62.503 29.3042 62.899 28.6016 63.6016C27.899 64.3042 27.5029 65.2564 27.5 66.25V70H23.75C23.4184 70 23.1005 70.1317 22.8661 70.3661C22.6317 70.6005 22.5 70.9185 22.5 71.25V75H21.25V77.5H58.75V75H57.5V71.25C57.5 70.9185 57.3683 70.6005 57.1339 70.3661C56.8994 70.1317 56.5815 70 56.25 70H52.5V66.25C52.497 65.2564 52.101 64.3042 51.3983 63.6016C50.6957 62.899 49.7436 62.503 48.75 62.5H43.75V46.25H59.7625C60.1259 46.2496 60.485 46.1703 60.8148 46.0176C61.1446 45.8649 61.4373 45.6423 61.6726 45.3654C61.908 45.0884 62.0804 44.7636 62.1779 44.4135C62.2754 44.0634 62.2958 43.6962 62.2375 43.3375ZM36.25 5H43.75V6.25H36.25V5ZM26.075 10.0375C26.075 10 26.0875 9.95 26.0875 9.9125C26.1096 9.59637 26.2511 9.30047 26.4831 9.08466C26.7152 8.86884 27.0206 8.74922 27.3375 8.75H52.6625C52.9794 8.74922 53.2847 8.86884 53.5168 9.08466C53.7489 9.30047 53.8903 9.59637 53.9125 9.9125C53.9125 9.95 53.925 10 53.925 10.0375L58.25 35H21.75L26.075 10.0375ZM21.3125 37.5H58.6875L58.9 38.75H21.1L21.3125 37.5ZM55 72.5V75H25V72.5H55ZM48.75 65C49.0815 65 49.3994 65.1317 49.6339 65.3661C49.8683 65.6005 50 65.9185 50 66.25V70H30V66.25C30 65.9185 30.1317 65.6005 30.3661 65.3661C30.6005 65.1317 30.9184 65 31.25 65H48.75ZM38.75 62.5V46.25H41.25V62.5H38.75ZM20.2375 43.75L20.6625 41.25H59.3375L59.7625 43.75H20.2375Z" fill="#3C3C3C"/>
</svg>
