<svg width="50" height="50" viewBox="0 0 50 50" fill="none" xmlns="http://www.w3.org/2000/svg">
<g clip-path="url(#clip0)">
<path d="M49.5074 0.12835C49.2028 -0.0454782 48.8282 -0.0425485 48.5264 0.135967L30.6305 10.7184C30.1663 10.9929 30.0125 11.5917 30.287 12.056C30.5614 12.5201 31.1602 12.674 31.6246 12.3995L44.4646 4.80687L20.548 29.6226L8.65269 25.9833L24.1766 16.8036C24.6409 16.529 24.7947 15.9302 24.5202 15.4659C24.2458 15.0018 23.6468 14.8478 23.1826 15.1224L5.75298 25.4289C5.41997 25.6259 5.23452 26.0008 5.28032 26.3851C5.32613 26.7694 5.59439 27.0903 5.96431 27.2034L20.1703 31.5495L26.4376 42.9571C26.4441 42.9689 26.4508 42.9788 26.4578 42.9877C26.5624 43.1621 26.7191 43.3046 26.9146 43.3868C27.037 43.4383 27.1656 43.4634 27.2933 43.4634C27.5436 43.4634 27.79 43.3671 27.976 43.1852L35.1825 36.1422L48.7377 40.2893C48.8315 40.3179 48.9277 40.3321 49.0234 40.3321C49.23 40.3321 49.4341 40.2664 49.6042 40.1406C49.8532 39.9564 50 39.6651 50 39.3555V0.976592C50 0.625909 49.812 0.30208 49.5074 0.12835ZM26.4908 32.1514C26.3777 32.3148 26.317 32.5087 26.317 32.7075V38.6812L22.0375 30.8916L40.9751 11.2422L26.4908 32.1514ZM28.2702 40.1669V34.0276L33.0543 35.4912L28.2702 40.1669ZM48.0469 38.0355L28.8576 32.1648L48.0469 4.46331V38.0355Z" fill="#3C3C3C"/>
<path d="M16.057 33.9432C15.6756 33.5619 15.0574 33.5619 14.6758 33.9432L5.55945 43.0596C5.1781 43.441 5.1781 44.0594 5.55945 44.4408C5.75027 44.6314 6.00017 44.7267 6.25007 44.7267C6.49997 44.7267 6.74988 44.6314 6.9406 44.4407L16.057 35.3243C16.4383 34.943 16.4383 34.3247 16.057 33.9432Z" fill="#3C3C3C"/>
<path d="M3.91316 46.0866C3.53171 45.7055 2.91355 45.7055 2.5321 46.0867L0.286011 48.3328C-0.0953369 48.7142 -0.0953369 49.3325 0.286011 49.714C0.476733 49.9046 0.726636 49.9999 0.976538 49.9999C1.22644 49.9999 1.47634 49.9045 1.66707 49.7139L3.91316 47.4678C4.29451 47.0864 4.29451 46.4681 3.91316 46.0866Z" fill="#3C3C3C"/>
<path d="M13.9306 48.2754C13.749 48.0937 13.4971 47.9893 13.2402 47.9893C12.9823 47.9893 12.7314 48.0937 12.5498 48.2754C12.3682 48.457 12.2637 48.708 12.2637 48.9658C12.2637 49.2227 12.3681 49.4746 12.5498 49.6563C12.7314 49.8379 12.9834 49.9424 13.2402 49.9424C13.4971 49.9424 13.749 49.8379 13.9306 49.6563C14.1122 49.4746 14.2168 49.2227 14.2168 48.9658C14.2168 48.708 14.1123 48.457 13.9306 48.2754Z" fill="#3C3C3C"/>
<path d="M21.1965 41.0092C20.8153 40.6278 20.1971 40.6278 19.8154 41.0092L14.9867 45.8378C14.6053 46.2191 14.6053 46.8375 14.9867 47.2188C15.1774 47.4096 15.4273 47.5049 15.6772 47.5049C15.9271 47.5049 16.177 47.4095 16.3677 47.2188L21.1965 42.3902C21.5778 42.0089 21.5778 41.3905 21.1965 41.0092Z" fill="#3C3C3C"/>
<path d="M37.8616 40.6387C37.4802 40.2575 36.862 40.2575 36.4806 40.6387L31.6388 45.4805C31.2574 45.8619 31.2574 46.4802 31.6388 46.8617C31.8295 47.0523 32.0794 47.1477 32.3293 47.1477C32.5792 47.1477 32.8291 47.0523 33.0198 46.8617L37.8616 42.0199C38.243 41.6385 38.243 41.0202 37.8616 40.6387Z" fill="#3C3C3C"/>
<path d="M27.6855 13.3115C27.5039 13.1299 27.252 13.0254 26.9951 13.0254C26.7383 13.0254 26.4863 13.1299 26.3047 13.3115C26.1231 13.4932 26.0186 13.7451 26.0186 14.0029C26.0186 14.2598 26.123 14.5107 26.3047 14.6924C26.4863 14.875 26.7383 14.9785 26.9951 14.9785C27.252 14.9785 27.5039 14.875 27.6855 14.6924C27.8671 14.5107 27.9717 14.2598 27.9717 14.0029C27.9717 13.7451 27.8672 13.4932 27.6855 13.3115Z" fill="#3C3C3C"/>
</g>
<defs>
<clipPath id="clip0">
<rect width="50" height="50" fill="white"/>
</clipPath>
</defs>
</svg>
