<svg width="80" height="80" viewBox="0 0 80 80" fill="none" xmlns="http://www.w3.org/2000/svg">
<path d="M78.5774 80H1.42257C0.636741 80 0 79.3633 0 78.5774V1.42257C0 0.636741 0.636741 0 1.42257 0H78.5774C79.3633 0 80 0.636741 80 1.42257V78.5774C80 79.3633 79.3633 80 78.5774 80ZM59.8149 77.1549H77.1549V59.8149L61.0708 75.899C61.0685 75.9013 61.0662 75.9042 61.0634 75.9064C61.0611 75.9087 61.0583 75.9115 61.056 75.9138L59.8149 77.1549ZM37.6707 77.1549H55.7919L58.0464 74.9004L48.9858 65.8398L37.6707 77.1549ZM16.9963 77.1549H33.6471L58.3781 52.4238L50.0527 44.0984L23.7927 70.3584L16.9963 77.1549ZM2.84513 77.1549H12.9727L20.7752 69.3524L12.0338 60.611L2.84513 69.7996V77.1549ZM50.9973 63.8277L60.0579 72.8883L77.1549 55.7913V37.6707L61.3957 53.4299L50.9973 63.8277ZM14.0458 58.5989L22.7867 67.3403L66.4156 23.7113L57.6742 14.9699L40.5699 32.0749C40.5682 32.076 40.567 32.0772 40.5659 32.0783L14.0458 58.5989ZM2.84513 46.6653V65.7755L11.0129 57.6071C11.0181 57.6026 11.0226 57.5974 11.0272 57.5929C11.0317 57.5878 11.0368 57.5832 11.0414 57.5787L37.5478 31.0717L28.1924 21.7163L2.84513 46.6653ZM52.0642 42.0863L60.3896 50.4118L77.1133 33.6886C77.127 33.675 77.1412 33.6613 77.1549 33.6482V16.9957L52.0642 42.0863ZM2.84513 23.4484V42.673L14.1107 31.5844L4.45718 21.9303L2.84513 23.4484ZM6.52901 19.9785L16.1387 29.5882L43.213 2.93959H24.6189L6.52901 19.9785ZM30.2199 19.7202L39.5599 29.0602L65.7755 2.84513H47.3646L30.2199 19.7202ZM59.6858 12.9584L68.4271 21.6998L77.1549 12.9721V2.84513H69.7991L59.6858 12.9584ZM2.84513 2.84513V19.5404L3.37717 19.0396C3.40733 19.0032 3.43863 18.9685 3.47277 18.9344C3.5274 18.8797 3.58544 18.8302 3.64632 18.7864L20.5692 2.84513H2.84513Z" fill="#3C3C3C"/>
</svg>
