<svg width="80" height="80" viewBox="0 0 80 80" fill="none" xmlns="http://www.w3.org/2000/svg">
<g clip-path="url(#clip0)">
<path d="M66.9599 12.9409C67.0499 12.3 66.6033 11.7075 65.9622 11.6175C65.323 11.528 64.7288 11.9741 64.639 12.6152C64.6113 12.8114 63.9719 17.4886 64.6472 23.3353C65.5535 31.1816 68.4374 37.3467 72.9874 41.1644C73.2069 41.3486 73.4741 41.4386 73.7399 41.4384C74.0744 41.4384 74.4065 41.2961 74.6382 41.0199C75.0543 40.5241 74.9896 39.7849 74.4936 39.3689C64.5763 31.0475 66.9304 13.1553 66.9599 12.9409Z" fill="#3C3C3C"/>
<path d="M74.3443 12.2556C73.7184 12.0909 73.0776 12.4648 72.9129 13.0906C72.7845 13.5789 69.8026 25.1489 72.9425 33.9414C73.1137 34.4206 73.5648 34.7194 74.0461 34.7194C74.1768 34.7194 74.3098 34.6973 74.4401 34.6508C75.0495 34.4331 75.3673 33.7625 75.1496 33.1531C72.256 25.0509 75.1498 13.7994 75.1793 13.6867C75.3439 13.0609 74.9701 12.4203 74.3443 12.2556Z" fill="#3C3C3C"/>
<path d="M78.8281 0C78.1808 0 77.6562 0.524687 77.6562 1.17188C77.6562 2.62687 75.5797 4.28703 71.9591 5.72672C71.3577 5.96578 71.0639 6.64719 71.3031 7.24859C71.5423 7.85 72.2236 8.14391 72.8252 7.90453C74.8705 7.09125 76.4825 6.20937 77.6562 5.26375V44.287H74.0527C67.3289 40.4381 62.8311 34.6959 60.685 27.2123C58.9761 21.2536 59.0914 15.3577 59.557 11.2017C62.7261 10.7189 65.6623 10.1148 68.2842 9.3975C68.9084 9.22672 69.2761 8.58219 69.1053 7.95797C68.9345 7.33375 68.2897 6.96625 67.6656 7.13687C60.3728 9.13234 50.5477 10.2313 40 10.2313C29.7262 10.2313 20.0817 9.18094 12.843 7.27359C5.10188 5.23406 2.34375 2.78437 2.34375 1.17188C2.34375 0.524687 1.81922 0 1.17188 0C0.524531 0 0 0.524687 0 1.17188V78.8281C0 79.4753 0.524531 80 1.17188 80H78.8281C79.4755 80 80 79.4753 80 78.8281V1.17188C80 0.524687 79.4755 0 78.8281 0ZM74.7119 46.6308H77.6562V68.5473C76.2586 67.1842 74.3506 66.3422 72.2489 66.3422H70.9859L74.7119 46.6308ZM57.165 11.5378C56.7314 15.873 56.7003 21.8195 58.4322 27.8584C60.7044 35.7816 65.4133 41.9008 72.4347 46.0592L69.8253 59.8641H21.872C21.2247 59.8641 20.7002 60.3888 20.7002 61.0359C20.7002 61.6831 21.2247 62.2078 21.872 62.2078H69.3823L68.6008 66.3422H59.522C56.7491 66.3422 54.313 67.8067 52.9428 70.002C51.5727 67.8067 49.1366 66.3422 46.3636 66.3422H33.6366C30.8636 66.3422 28.4275 67.8067 27.0573 70.002C25.6872 67.8067 23.2511 66.3422 20.4781 66.3422H11.3992L10.6177 62.2078H17.225C17.8723 62.2078 18.3969 61.6831 18.3969 61.0359C18.3969 60.3888 17.8723 59.8641 17.225 59.8641H10.1747L7.56531 46.0592C14.5869 41.9008 19.2956 35.7814 21.5678 27.8584C23.3 21.8184 23.2686 15.8706 22.8347 11.5353C28.12 12.2153 33.9573 12.575 40 12.575C46.0559 12.575 51.8877 12.2169 57.165 11.5378ZM5.28813 46.6308L9.01406 66.3423H7.75109C5.64922 66.3423 3.74141 67.1845 2.34375 68.5475V46.6308H5.28813ZM12.2459 9.54C14.7291 10.1942 17.4847 10.7497 20.4427 11.2C20.9084 15.3559 21.0239 21.2527 19.3148 27.2123C17.1687 34.6959 12.6709 40.4383 5.94719 44.287H2.34375V5.25266C4.78156 7.21922 8.72672 8.61281 12.2459 9.54ZM2.34375 74.0933C2.34375 71.1116 4.76937 68.6859 7.75109 68.6859H10.4233C10.4244 68.6859 10.4256 68.6861 10.4267 68.6861C10.4278 68.6861 10.4289 68.6859 10.43 68.6859H20.478C23.4597 68.6859 25.8853 71.1116 25.8853 74.0933V77.6562H2.34375V74.0933ZM28.2292 74.0933C28.2292 71.1116 30.6548 68.6859 33.6364 68.6859H46.3634C49.345 68.6859 51.7706 71.1116 51.7706 74.0933V77.6562H28.2292V74.0933ZM54.1145 74.0933C54.1145 71.1116 56.5402 68.6859 59.5219 68.6859H69.5698C69.5709 68.6859 69.572 68.6861 69.5731 68.6861C69.5742 68.6861 69.5755 68.6859 69.5766 68.6859H72.2487C75.2305 68.6859 77.6561 71.1116 77.6561 74.0933V77.6562H54.1145V74.0933Z" fill="#3C3C3C"/>
<path d="M39.9999 7.30781C51.8972 7.30781 61.7644 5.15078 64.5535 1.94046C64.978 1.45187 64.926 0.711713 64.4374 0.287182C63.9488 -0.13735 63.2088 -0.0853184 62.7841 0.403275C61.7588 1.58359 58.9185 2.73921 54.9914 3.5739C50.7744 4.47046 45.4503 4.96406 39.9999 4.96406C27.7744 4.96406 19.1365 2.61421 17.2158 0.403275C16.7911 -0.0853184 16.051 -0.137193 15.5625 0.287182C15.074 0.711557 15.0219 1.45171 15.4465 1.94046C18.2354 5.15093 28.1027 7.30781 39.9999 7.30781Z" fill="#3C3C3C"/>
<path d="M5.50617 39.3689C5.01023 39.785 4.94554 40.5241 5.36164 41.0199C5.59336 41.2961 5.92539 41.4384 6.25992 41.4384C6.5257 41.4384 6.79305 41.3484 7.01242 41.1644C11.5626 37.3467 14.4465 31.1816 15.3527 23.3353C16.0279 17.4886 15.3885 12.8114 15.361 12.6152C15.2712 11.9742 14.678 11.5281 14.0377 11.6175C13.3966 11.7075 12.9501 12.3 13.0401 12.9409C13.0652 13.1208 15.4498 31.0256 5.50617 39.3689Z" fill="#3C3C3C"/>
<path d="M5.55992 34.6508C5.69023 34.6973 5.8232 34.7194 5.95398 34.7194C6.43523 34.7194 6.88648 34.4205 7.05757 33.9414C10.1976 25.1489 7.2157 13.5789 7.08711 13.0906C6.92242 12.4648 6.28148 12.0909 5.65617 12.2556C5.03023 12.42 4.65632 13.0608 4.82039 13.6866C4.84992 13.7992 7.74367 25.0508 4.85007 33.153C4.63289 33.7627 4.95054 34.4331 5.55992 34.6508Z" fill="#3C3C3C"/>
</g>
<defs>
<clipPath id="clip0">
<rect width="80" height="80" fill="white"/>
</clipPath>
</defs>
</svg>
